<svg width="135" height="32" viewBox="0 0 135 32" fill="none" xmlns="http://www.w3.org/2000/svg">
<path d="M41.3789 2.41309C43.9456 2.41312 46.2548 2.97083 48.3193 4.07617L48.3213 4.07715C50.3728 5.16646 52.0061 6.77746 53.2236 8.92871L53.2246 8.92969C54.4312 11.0526 55.0517 13.6964 55.0518 16.8906C55.0518 20.084 54.4313 22.7324 53.2246 24.8652C52.0074 27.0069 50.3738 28.6194 48.3213 29.7188C46.2564 30.8151 43.9465 31.3681 41.3789 31.3682C38.7921 31.3682 36.4731 30.8101 34.4092 29.7051H34.4082C32.365 28.5963 30.736 26.979 29.5186 24.8369C28.321 22.7034 27.7051 20.0642 27.7051 16.8906C27.7051 13.8956 28.2472 11.3847 29.3018 9.33301L29.5195 8.92871C30.7374 6.77691 32.3664 5.16623 34.4082 4.07715L34.4092 4.07617C36.4731 2.97115 38.7921 2.41309 41.3789 2.41309ZM73.5693 2.41309C76.1359 2.41316 78.4453 2.97086 80.5098 4.07617L80.5117 4.07715C82.5631 5.16648 84.1965 6.77748 85.4141 8.92871V8.92969C86.6207 11.0526 87.2422 13.6964 87.2422 16.8906C87.2422 20.0842 86.6209 22.7323 85.4141 24.8652C84.1969 27.0068 82.5642 28.6194 80.5117 29.7188C78.4469 30.8151 76.1368 31.3681 73.5693 31.3682C70.9826 31.3682 68.6635 30.8101 66.5996 29.7051H66.5986C64.6831 28.6656 63.132 27.1791 61.9424 25.2324L61.709 24.8369C60.5113 22.7034 59.8955 20.0642 59.8955 16.8906C59.8955 13.8955 60.4376 11.3847 61.4922 9.33301L61.71 8.92871C62.9279 6.77689 64.5568 5.16622 66.5986 4.07715L66.5996 4.07617C68.6635 2.97115 70.9826 2.41309 73.5693 2.41309ZM98.9229 2.81543V25.7959H110.814V30.9658H92.2012V2.81543H98.9229ZM24.9336 2.81543V7.98633H16.0859V30.9658H9.47949V7.98633H0.631836V2.81543H24.9336ZM41.3789 8.10059C40.0431 8.10059 38.8629 8.40145 37.8682 9.03125L37.6729 9.16113C36.6499 9.86852 35.8946 10.8996 35.3887 12.2109L35.3877 12.2129C34.8927 13.5121 34.6572 15.0781 34.6572 16.8906C34.6572 18.7034 34.8924 20.2732 35.3867 21.5811L35.3896 21.5869C35.8958 22.8883 36.6501 23.9164 37.6689 24.6318V24.6328L37.6758 24.6367C38.7099 25.3442 39.9561 25.6807 41.3789 25.6807C42.8015 25.6806 44.0444 25.3442 45.0703 24.6348L45.0713 24.6338C46.1012 23.9182 46.8573 22.8889 47.3545 21.585C47.8596 20.2758 48.1006 18.7045 48.1006 16.8906C48.1006 15.077 47.8593 13.5096 47.3535 12.209C46.8575 10.8994 46.1033 9.86973 45.0732 9.16309H45.0742C44.0479 8.44248 42.8034 8.10062 41.3789 8.10059ZM73.5693 8.10059C72.2337 8.10059 71.0533 8.40153 70.0586 9.03125L69.8613 9.16211C68.8392 9.86947 68.0848 10.9003 67.5791 12.2109L67.5781 12.2129C67.0832 13.5121 66.8467 15.0781 66.8467 16.8906C66.8467 18.7034 67.0828 20.2732 67.5771 21.5811L67.5791 21.5869C68.0853 22.8885 68.8404 23.9163 69.8594 24.6318V24.6328L69.8652 24.6367C70.8994 25.3443 72.1464 25.6807 73.5693 25.6807C74.9918 25.6806 76.2349 25.3441 77.2607 24.6348L77.2617 24.6338C78.2915 23.9183 79.0468 22.8888 79.5439 21.585C80.0491 20.2758 80.291 18.7046 80.291 16.8906C80.291 15.1903 80.079 13.7066 79.6357 12.4561L79.5439 12.209C79.0476 10.8987 78.2926 9.8688 77.2617 9.16211C76.2359 8.44263 74.9927 8.10066 73.5693 8.10059Z" fill="#827BFF" stroke="#504BBF" stroke-width="1.26391"/>
<path d="M134.053 10.1689V30.9658H127.389V10.1689H134.053ZM122.085 10.1689V30.9658H115.421V10.1689H122.085ZM118.753 0.631836C119.683 0.631836 120.446 0.930761 121.08 1.52441L121.083 1.52637C121.726 2.1217 122.028 2.80888 122.028 3.61914C122.028 4.42941 121.726 5.11657 121.083 5.71191L121.08 5.71484C120.446 6.3085 119.683 6.60645 118.753 6.60645C117.835 6.6064 117.071 6.30909 116.425 5.71191C115.782 5.11652 115.479 4.42951 115.479 3.61914C115.479 2.80887 115.782 2.12171 116.425 1.52637C117.071 0.929332 117.835 0.631883 118.753 0.631836ZM130.721 0.631836C131.65 0.631836 132.413 0.930807 133.046 1.52441L133.049 1.52637C133.693 2.12171 133.996 2.80887 133.996 3.61914C133.996 4.42951 133.693 5.11652 133.049 5.71191L133.046 5.71484C132.413 6.30829 131.65 6.60645 130.721 6.60645C129.803 6.60643 129.039 6.30908 128.393 5.71191C127.749 5.11652 127.447 4.42951 127.447 3.61914C127.447 2.80887 127.749 2.12171 128.393 1.52637C129.039 0.929348 129.803 0.631854 130.721 0.631836Z" fill="#27CDCB" stroke="#19B2AD" stroke-width="1.26391"/>
</svg>
