<?xml version="1.0" encoding="UTF-8"?>
<svg id="Layer_1" xmlns="http://www.w3.org/2000/svg" version="1.1" viewBox="0 0 512 32">
  <!-- Generator: Adobe Illustrator 30.0.0, SVG Export Plug-In . SVG Version: 2.1.1 Build 123)  -->
  <defs>
    <style>
      .st0 {
        fill: #827bff;
      }

      .st1 {
        fill: #27cdcb;
      }

      .st2 {
        fill: #83e7e9;
      }
    </style>
  </defs>
  <path class="st0" d="M0,8.6V2.2h25.6v6.4h-8.8v23h-7.9V8.6H0Z"/>
  <path class="st0" d="M55.7,16.9c0,3.3-.6,6-1.9,8.3-1.3,2.2-3,3.9-5.2,5.1-2.2,1.1-4.6,1.7-7.2,1.7s-5.1-.6-7.3-1.7c-2.2-1.2-3.9-2.9-5.1-5.1-1.3-2.3-1.9-5-1.9-8.3s.6-6,1.9-8.3c1.3-2.3,3-3.9,5.1-5.1,2.2-1.2,4.6-1.7,7.3-1.7s5.1.6,7.2,1.7c2.2,1.1,3.9,2.8,5.2,5.1,1.3,2.2,1.9,5,1.9,8.3ZM47.5,16.9c0-1.8-.2-3.2-.7-4.5-.5-1.2-1.1-2.1-2.1-2.8-.9-.6-2-.9-3.3-.9s-2.4.3-3.3.9c-.9.6-1.6,1.5-2.1,2.8-.5,1.2-.7,2.7-.7,4.5s.2,3.3.7,4.5c.5,1.2,1.2,2.1,2.1,2.8.9.6,2,.9,3.3.9s2.4-.3,3.3-.9c.9-.6,1.6-1.6,2.1-2.8.5-1.2.7-2.7.7-4.5Z"/>
  <path class="st0" d="M87.9,16.9c0,3.3-.6,6-1.9,8.3-1.3,2.2-3,3.9-5.2,5.1-2.2,1.1-4.6,1.7-7.2,1.7s-5.1-.6-7.3-1.7c-2.2-1.2-3.9-2.9-5.1-5.1-1.3-2.3-1.9-5-1.9-8.3s.6-6,1.9-8.3c1.3-2.3,3-3.9,5.1-5.1,2.2-1.2,4.6-1.7,7.3-1.7s5.1.6,7.2,1.7c2.2,1.1,3.9,2.8,5.2,5.1,1.3,2.2,1.9,5,1.9,8.3ZM79.7,16.9c0-1.8-.2-3.2-.7-4.5-.5-1.2-1.1-2.1-2.1-2.8-.9-.6-2-.9-3.3-.9s-2.4.3-3.3.9c-.9.6-1.6,1.5-2.1,2.8-.5,1.2-.7,2.7-.7,4.5s.2,3.3.7,4.5c.5,1.2,1.2,2.1,2.1,2.8.9.6,2,.9,3.3.9s2.4-.3,3.3-.9c.9-.6,1.6-1.6,2.1-2.8.5-1.2.7-2.7.7-4.5Z"/>
  <path class="st0" d="M91.6,31.6V2.2h8v23h11.9v6.4h-19.9Z"/>
  <path class="st1" d="M114.8,31.6V9.5h7.9v22.1h-7.9ZM118.8,7.2c-1.1,0-2-.4-2.8-1.1-.8-.7-1.1-1.6-1.1-2.6s.4-1.8,1.1-2.6c.8-.7,1.7-1.1,2.8-1.1s2,.4,2.8,1.1c.8.7,1.1,1.6,1.1,2.6s-.4,1.8-1.1,2.6c-.8.7-1.7,1.1-2.8,1.1Z"/>
  <path class="st1" d="M126.8,31.6V9.5h7.9v22.1h-7.9ZM130.7,7.2c-1.1,0-2-.4-2.8-1.1-.8-.7-1.1-1.6-1.1-2.6s.4-1.8,1.1-2.6c.8-.7,1.7-1.1,2.8-1.1s2,.4,2.8,1.1c.8.7,1.1,1.6,1.1,2.6s-.4,1.8-1.1,2.6c-.8.7-1.7,1.1-2.8,1.1Z"/>
  <path class="st2" d="M152.4,7h3.9l5.2,12.6h.2l5.2-12.6h3.9v17.5h-3v-12h-.2l-4.8,11.9h-2.3l-4.8-12h-.2v12h-3V7ZM174.2,24.5V7h11.4v2.7h-8.2v4.7h7.6v2.7h-7.6v4.8h8.3v2.7h-11.4ZM194.6,24.5h-5.9V7h6c1.7,0,3.2.3,4.5,1,1.2.7,2.2,1.7,2.9,3,.7,1.3,1,2.9,1,4.7s-.3,3.4-1,4.7c-.7,1.3-1.6,2.3-2.9,3-1.3.7-2.8,1-4.6,1ZM191.9,21.8h2.6c1.2,0,2.2-.2,3-.7.8-.4,1.4-1.1,1.8-2,.4-.9.6-2,.6-3.3s-.2-2.4-.6-3.3c-.4-.9-1-1.5-1.8-2-.8-.4-1.8-.7-3-.7h-2.7v12ZM209.3,7v17.5h-3.2V7h3.2ZM227.7,12.9h-3.2c0-.5-.3-1-.5-1.4-.2-.4-.5-.8-.9-1-.4-.3-.8-.5-1.2-.6-.5-.1-1-.2-1.5-.2-.9,0-1.8.2-2.5.7-.7.5-1.3,1.2-1.7,2.1-.4.9-.6,2-.6,3.3s.2,2.5.6,3.4c.4.9,1,1.6,1.7,2.1.7.5,1.6.7,2.5.7s1,0,1.5-.2c.5-.1.9-.3,1.2-.6.4-.3.7-.6.9-1,.3-.4.4-.9.5-1.4h3.2c-.1.8-.4,1.6-.8,2.4-.4.7-.9,1.4-1.5,1.9-.6.6-1.4,1-2.2,1.3-.9.3-1.8.5-2.8.5-1.5,0-2.9-.4-4.1-1.1-1.2-.7-2.2-1.7-2.8-3.1-.7-1.3-1-2.9-1-4.8s.3-3.5,1-4.8c.7-1.3,1.6-2.4,2.9-3.1,1.2-.7,2.6-1.1,4.1-1.1s1.9.1,2.7.4c.8.3,1.6.7,2.2,1.2.7.5,1.2,1.2,1.6,1.9.4.8.7,1.6.8,2.6ZM232.6,24.5h-3.4l6.1-17.5h3.9l6.2,17.5h-3.4l-4.7-13.9h-.1l-4.7,13.9ZM232.7,17.7h9.2v2.5h-9.2v-2.5ZM247.7,24.5V7h3.2v14.8h7.7v2.7h-10.8ZM273.2,24.5h-5.9V7h6c1.7,0,3.2.3,4.5,1,1.2.7,2.2,1.7,2.9,3,.7,1.3,1,2.9,1,4.7s-.3,3.4-1,4.7c-.7,1.3-1.6,2.3-2.9,3-1.3.7-2.8,1-4.6,1ZM270.4,21.8h2.6c1.2,0,2.2-.2,3-.7.8-.4,1.4-1.1,1.8-2,.4-.9.6-2,.6-3.3s-.2-2.4-.6-3.3c-.4-.9-1-1.5-1.8-2-.8-.4-1.8-.7-3-.7h-2.7v12ZM300.2,15.8c0,1.9-.4,3.5-1.1,4.8-.7,1.3-1.7,2.4-2.9,3.1-1.2.7-2.6,1.1-4.1,1.1s-2.9-.4-4.1-1.1c-1.2-.7-2.2-1.7-2.9-3.1-.7-1.3-1-2.9-1-4.8s.4-3.5,1-4.8c.7-1.3,1.7-2.4,2.9-3.1,1.2-.7,2.6-1.1,4.1-1.1s2.9.4,4.1,1.1c1.2.7,2.2,1.7,2.9,3.1.7,1.3,1.1,2.9,1.1,4.8ZM297.1,15.8c0-1.3-.2-2.4-.6-3.3-.4-.9-1-1.6-1.7-2.1-.7-.5-1.6-.7-2.5-.7s-1.8.2-2.5.7c-.7.5-1.3,1.2-1.7,2.1-.4.9-.6,2-.6,3.3s.2,2.4.6,3.4c.4.9,1,1.6,1.7,2.1.7.5,1.6.7,2.5.7s1.8-.2,2.5-.7c.7-.5,1.3-1.2,1.7-2.1.4-.9.6-2,.6-3.4ZM318.2,12.9h-3.2c0-.5-.3-1-.5-1.4-.2-.4-.5-.8-.9-1-.4-.3-.8-.5-1.2-.6-.5-.1-1-.2-1.5-.2-.9,0-1.8.2-2.5.7-.7.5-1.3,1.2-1.7,2.1-.4.9-.6,2-.6,3.3s.2,2.5.6,3.4c.4.9,1,1.6,1.7,2.1.7.5,1.6.7,2.5.7s1,0,1.5-.2c.5-.1.9-.3,1.2-.6.4-.3.7-.6.9-1,.3-.4.4-.9.5-1.4h3.2c-.1.8-.4,1.6-.8,2.4-.4.7-.9,1.4-1.5,1.9-.6.6-1.4,1-2.2,1.3-.9.3-1.8.5-2.8.5-1.5,0-2.9-.4-4.1-1.1-1.2-.7-2.2-1.7-2.8-3.1s-1-2.9-1-4.8.3-3.5,1-4.8c.7-1.3,1.7-2.4,2.9-3.1,1.2-.7,2.6-1.1,4.1-1.1s1.9.1,2.7.4c.8.3,1.6.7,2.2,1.2.7.5,1.2,1.2,1.6,1.9.4.8.7,1.6.8,2.6ZM332.1,7h3.2v11.4c0,1.2-.3,2.3-.9,3.3-.6.9-1.4,1.7-2.5,2.2-1.1.5-2.3.8-3.7.8s-2.7-.3-3.7-.8c-1.1-.5-1.9-1.3-2.5-2.2-.6-.9-.9-2-.9-3.3V7h3.2v11.1c0,.7.2,1.4.5,1.9.3.6.8,1,1.4,1.3.6.3,1.3.5,2.1.5s1.5-.2,2.1-.5c.6-.3,1-.8,1.4-1.3.3-.6.5-1.2.5-1.9V7ZM338.7,7h3.9l5.2,12.6h.2l5.2-12.6h3.9v17.5h-3v-12h-.2l-4.8,11.9h-2.3l-4.8-12h-.2v12h-3V7ZM360.4,24.5V7h11.4v2.7h-8.2v4.7h7.6v2.7h-7.6v4.8h8.3v2.7h-11.4ZM389.3,7v17.5h-2.8l-8.2-11.9h-.1v11.9h-3.2V7h2.8l8.2,11.9h.2V7h3.1ZM392,9.7v-2.7h13.9v2.7h-5.4v14.8h-3.1v-14.8h-5.4ZM425.6,7h3.2v11.4c0,1.2-.3,2.3-.9,3.3-.6.9-1.4,1.7-2.5,2.2-1.1.5-2.3.8-3.7.8s-2.7-.3-3.7-.8c-1.1-.5-1.9-1.3-2.5-2.2-.6-.9-.9-2-.9-3.3V7h3.2v11.1c0,.7.2,1.4.5,1.9.3.6.8,1,1.4,1.3.6.3,1.3.5,2.1.5s1.5-.2,2.1-.5c.6-.3,1-.8,1.4-1.3.3-.6.5-1.2.5-1.9V7ZM432.2,24.5V7h6.5c1.3,0,2.5.2,3.4.8.9.5,1.6,1.2,2.1,2.1.5.9.7,1.9.7,3s-.2,2.1-.7,3c-.5.9-1.2,1.6-2.1,2.1-.9.5-2.1.7-3.4.7h-4.3v-2.6h3.9c.8,0,1.4-.1,1.9-.4.5-.3.9-.6,1.1-1.1.2-.5.4-1,.4-1.6s-.1-1.2-.4-1.6c-.2-.5-.6-.8-1.1-1.1-.5-.3-1.1-.4-1.9-.4h-2.9v14.8h-3.2ZM447.6,24.5V7h3.2v14.8h7.7v2.7h-10.8ZM476.1,15.8c0,1.9-.4,3.5-1.1,4.8-.7,1.3-1.7,2.4-2.9,3.1-1.2.7-2.6,1.1-4.1,1.1s-2.9-.4-4.1-1.1c-1.2-.7-2.2-1.7-2.9-3.1-.7-1.3-1-2.9-1-4.8s.3-3.5,1-4.8c.7-1.3,1.7-2.4,2.9-3.1,1.2-.7,2.6-1.1,4.1-1.1s2.9.4,4.1,1.1c1.2.7,2.2,1.7,2.9,3.1.7,1.3,1.1,2.9,1.1,4.8ZM473,15.8c0-1.3-.2-2.4-.6-3.3-.4-.9-1-1.6-1.7-2.1-.7-.5-1.6-.7-2.5-.7s-1.8.2-2.5.7c-.7.5-1.3,1.2-1.7,2.1-.4.9-.6,2-.6,3.3s.2,2.4.6,3.4c.4.9,1,1.6,1.7,2.1.7.5,1.6.7,2.5.7s1.8-.2,2.5-.7c.7-.5,1.3-1.2,1.7-2.1.4-.9.6-2,.6-3.4ZM480.4,24.5h-3.4l6.1-17.5h3.9l6.2,17.5h-3.4l-4.7-13.9h-.1l-4.7,13.9ZM480.5,17.7h9.2v2.5h-9.2v-2.5ZM501.5,24.5h-5.9V7h6c1.7,0,3.2.3,4.5,1,1.2.7,2.2,1.7,2.9,3,.7,1.3,1,2.9,1,4.7s-.3,3.4-1,4.7c-.7,1.3-1.6,2.3-2.9,3-1.3.7-2.8,1-4.6,1ZM498.7,21.8h2.6c1.2,0,2.2-.2,3-.7.8-.4,1.4-1.1,1.8-2,.4-.9.6-2,.6-3.3s-.2-2.4-.6-3.3c-.4-.9-1-1.5-1.8-2-.8-.4-1.8-.7-3-.7h-2.7v12Z"/>
</svg>